<?xml version="1.0" standalone="no"?>
<!DOCTYPE svg PUBLIC "-//W3C//DTD SVG 20010904//EN"
 "http://www.w3.org/TR/2001/REC-SVG-20010904/DTD/svg10.dtd">
<svg version="1.0" xmlns="http://www.w3.org/2000/svg"
 width="800.000000pt" height="800.000000pt" viewBox="0 0 800.000000 800.000000"
 preserveAspectRatio="xMidYMid meet">

<g transform="translate(0.000000,800.000000) scale(0.100000,-0.100000)"
fill="#000000" stroke="none">
<path d="M3710 6925 c-209 -29 -363 -72 -551 -151 -286 -120 -518 -280 -729
-501 -299 -314 -476 -652 -571 -1093 -27 -130 -39 -489 -19 -623 106 -734 876
-2232 2063 -4012 44 -66 83 -124 87 -128 11 -12 368 526 655 988 311 500 519
854 720 1225 37 69 82 152 100 185 18 33 80 155 138 270 297 593 473 1049 543
1400 42 213 31 508 -28 775 -64 290 -232 637 -419 867 -240 293 -520 504 -857
647 -190 80 -349 123 -562 152 -131 17 -441 17 -570 -1z m415 -905 c486 -55
880 -406 990 -881 59 -256 27 -526 -89 -764 -61 -125 -125 -214 -223 -310
-222 -218 -485 -325 -799 -325 -87 0 -174 6 -224 16 -299 56 -570 238 -737
491 -205 313 -247 703 -112 1050 189 483 680 781 1194 723z"/>
<path d="M3560 5680 c-11 -7 -15 -28 -16 -77 0 -44 -6 -77 -16 -93 -47 -75
-47 -179 1 -284 54 -120 164 -173 273 -131 12 5 17 -3 22 -37 11 -67 34 -109
191 -348 232 -352 367 -559 420 -639 l48 -74 19 36 c42 82 31 243 -24 351 -43
84 -208 301 -327 429 l-45 48 18 27 c33 51 68 134 73 173 4 30 10 39 20 35 79
-31 161 -11 223 53 53 54 79 119 87 213 5 59 3 73 -22 123 -35 73 -85 106
-170 113 -100 8 -161 -33 -211 -142 -23 -51 -28 -80 -39 -232 -12 -164 -14
-175 -39 -209 -15 -19 -31 -35 -36 -35 -5 0 -21 16 -36 35 -26 34 -28 44 -36
193 -10 177 -29 255 -79 315 -43 52 -96 77 -162 77 l-54 0 -17 45 c-18 45 -35
55 -66 35z m178 -203 c26 -27 59 -119 68 -188 11 -79 -34 -125 -96 -99 -67 28
-118 242 -70 290 27 27 71 26 98 -3z m642 3 c25 -25 26 -82 5 -164 -20 -75
-42 -112 -76 -126 -59 -25 -106 21 -95 93 27 175 101 262 166 197z"/>
<path d="M3828 4768 c-174 -201 -272 -342 -311 -444 -29 -80 -30 -219 -1 -283
l19 -44 132 199 c72 109 174 265 227 346 l95 147 -46 70 c-25 39 -49 71 -53
71 -5 0 -32 -28 -62 -62z"/>
</g>
</svg>
